<?xml version="1.0" encoding="UTF-8"?><svg id="_イヤー_2" xmlns="http://www.w3.org/2000/svg" viewBox="0 0 128.88 44.32"><g id="_イヤー_1-2"><path d="M40.88,19.12v24.56h-11.68v-5.36c-2.32,3.92-6.8,6-13.12,6C6,44.32,0,38.72,0,31.28s5.36-12.88,18.48-12.88h9.92c0-5.36-3.2-8.48-9.92-8.48-4.56,0-9.28,1.52-12.4,4L1.6,5.2C6.32,1.84,13.28,0,20.16,0c13.12,0,20.72,6.08,20.72,19.12Zm-12.48,10.96v-4.4h-8.56c-5.84,0-7.68,2.16-7.68,5.04,0,3.12,2.64,5.2,7.04,5.2,4.16,0,7.76-1.92,9.2-5.84Zm56,4v9.6H46v-7.52l21.92-25.92h-21.36V.64h37.12v7.52l-21.92,25.92h22.64Zm44.48-14.96v24.56h-11.68v-5.36c-2.32,3.92-6.8,6-13.12,6-10.08,0-16.08-5.6-16.08-13.04s5.36-12.88,18.48-12.88h9.92c0-5.36-3.2-8.48-9.92-8.48-4.56,0-9.28,1.52-12.4,4l-4.48-8.72c4.72-3.36,11.68-5.2,18.56-5.2,13.12,0,20.72,6.08,20.72,19.12Zm-12.48,10.96v-4.4h-8.56c-5.84,0-7.68,2.16-7.68,5.04,0,3.12,2.64,5.2,7.04,5.2,4.16,0,7.76-1.92,9.2-5.84Z" fill="#fff"/></g></svg>